<mxfile host="65bd71144e">
    <diagram id="GYTUcsLn5fqmQF2spKof" name="Page-1">
        <mxGraphModel dx="1068" dy="494" grid="1" gridSize="10" guides="1" tooltips="1" connect="1" arrows="1" fold="1" page="1" pageScale="1" pageWidth="850" pageHeight="1100" background="#ffffff" math="0" shadow="0">
            <root>
                <mxCell id="0"/>
                <mxCell id="1" parent="0"/>
                <mxCell id="9" style="edgeStyle=none;html=1;exitX=0.5;exitY=1;exitDx=0;exitDy=0;entryX=0.5;entryY=0;entryDx=0;entryDy=0;fontFamily=Times New Roman;fontSize=14;" edge="1" parent="1" source="2" target="4">
                    <mxGeometry relative="1" as="geometry"/>
                </mxCell>
                <mxCell id="2" value="Start" style="ellipse;whiteSpace=wrap;html=1;fontFamily=Times New Roman;fontSize=14;fontStyle=1;strokeWidth=2;" vertex="1" parent="1">
                    <mxGeometry x="230" y="40" width="80" height="50" as="geometry"/>
                </mxCell>
                <mxCell id="3" value="End" style="ellipse;whiteSpace=wrap;html=1;fontFamily=Times New Roman;fontSize=14;fontStyle=1;strokeWidth=2;" vertex="1" parent="1">
                    <mxGeometry x="370" y="200" width="80" height="50" as="geometry"/>
                </mxCell>
                <mxCell id="10" style="edgeStyle=none;html=1;exitX=0.5;exitY=1;exitDx=0;exitDy=0;entryX=0.5;entryY=0;entryDx=0;entryDy=0;fontFamily=Times New Roman;fontSize=14;" edge="1" parent="1" source="4" target="5">
                    <mxGeometry relative="1" as="geometry"/>
                </mxCell>
                <mxCell id="4" value="Create population" style="rounded=1;whiteSpace=wrap;html=1;strokeWidth=1;fontFamily=Times New Roman;fontSize=14;" vertex="1" parent="1">
                    <mxGeometry x="213.75" y="110" width="112.5" height="50" as="geometry"/>
                </mxCell>
                <mxCell id="11" style="edgeStyle=none;html=1;exitX=0.5;exitY=1;exitDx=0;exitDy=0;entryX=0.5;entryY=0;entryDx=0;entryDy=0;fontFamily=Times New Roman;fontSize=14;" edge="1" parent="1" source="5" target="6">
                    <mxGeometry relative="1" as="geometry"/>
                </mxCell>
                <mxCell id="15" style="edgeStyle=none;rounded=0;html=1;exitX=1;exitY=0.5;exitDx=0;exitDy=0;entryX=0;entryY=0.5;entryDx=0;entryDy=0;fontFamily=Times New Roman;fontSize=14;" edge="1" parent="1" source="5" target="3">
                    <mxGeometry relative="1" as="geometry"/>
                </mxCell>
                <mxCell id="5" value="Is goal&lt;br&gt;reached?" style="rhombus;whiteSpace=wrap;html=1;strokeWidth=1;fontFamily=Times New Roman;fontSize=14;" vertex="1" parent="1">
                    <mxGeometry x="210" y="190" width="120" height="70" as="geometry"/>
                </mxCell>
                <mxCell id="12" style="edgeStyle=none;html=1;exitX=0.5;exitY=1;exitDx=0;exitDy=0;entryX=0.5;entryY=0;entryDx=0;entryDy=0;fontFamily=Times New Roman;fontSize=14;" edge="1" parent="1" source="6" target="7">
                    <mxGeometry relative="1" as="geometry"/>
                </mxCell>
                <mxCell id="6" value="Mutation" style="rounded=1;whiteSpace=wrap;html=1;strokeWidth=1;fontFamily=Times New Roman;fontSize=14;" vertex="1" parent="1">
                    <mxGeometry x="213.75" y="280" width="112.5" height="50" as="geometry"/>
                </mxCell>
                <mxCell id="13" style="edgeStyle=none;html=1;exitX=0.5;exitY=1;exitDx=0;exitDy=0;entryX=0.5;entryY=0;entryDx=0;entryDy=0;fontFamily=Times New Roman;fontSize=14;" edge="1" parent="1" source="7" target="8">
                    <mxGeometry relative="1" as="geometry"/>
                </mxCell>
                <mxCell id="7" value="Crossover" style="rounded=1;whiteSpace=wrap;html=1;strokeWidth=1;fontFamily=Times New Roman;fontSize=14;" vertex="1" parent="1">
                    <mxGeometry x="213.75" y="350" width="112.5" height="50" as="geometry"/>
                </mxCell>
                <mxCell id="14" style="edgeStyle=none;html=1;exitX=0.5;exitY=1;exitDx=0;exitDy=0;entryX=0;entryY=0.5;entryDx=0;entryDy=0;fontFamily=Times New Roman;fontSize=14;rounded=0;" edge="1" parent="1" source="8" target="5">
                    <mxGeometry relative="1" as="geometry">
                        <Array as="points">
                            <mxPoint x="270" y="500"/>
                            <mxPoint x="180" y="500"/>
                            <mxPoint x="180" y="225"/>
                        </Array>
                    </mxGeometry>
                </mxCell>
                <mxCell id="8" value="Selection" style="rounded=1;whiteSpace=wrap;html=1;strokeWidth=1;fontFamily=Times New Roman;fontSize=14;" vertex="1" parent="1">
                    <mxGeometry x="213.75" y="420" width="112.5" height="50" as="geometry"/>
                </mxCell>
                <mxCell id="16" value="Yes" style="text;html=1;strokeColor=none;fillColor=none;align=center;verticalAlign=middle;whiteSpace=wrap;rounded=0;strokeWidth=1;fontFamily=Times New Roman;fontSize=14;" vertex="1" parent="1">
                    <mxGeometry x="300" y="190" width="60" height="30" as="geometry"/>
                </mxCell>
                <mxCell id="17" value="No" style="text;html=1;strokeColor=none;fillColor=none;align=center;verticalAlign=middle;whiteSpace=wrap;rounded=0;strokeWidth=1;fontFamily=Times New Roman;fontSize=14;" vertex="1" parent="1">
                    <mxGeometry x="270" y="250" width="60" height="30" as="geometry"/>
                </mxCell>
            </root>
        </mxGraphModel>
    </diagram>
    <diagram id="n_8hjNeLkDBZ_-WD8NYb" name="Page-2">
        <mxGraphModel dx="2132" dy="593" grid="1" gridSize="10" guides="1" tooltips="1" connect="1" arrows="1" fold="1" page="1" pageScale="1" pageWidth="850" pageHeight="1100" math="0" shadow="0">
            <root>
                <mxCell id="0"/>
                <mxCell id="1" parent="0"/>
                <mxCell id="jOoNzDQk0n0tK0R7fyT8-1" value="" style="ellipse;whiteSpace=wrap;html=1;strokeWidth=1;fontFamily=Times New Roman;fontSize=14;fillColor=default;" vertex="1" parent="1">
                    <mxGeometry x="-40" y="240" width="570" height="370" as="geometry"/>
                </mxCell>
                <mxCell id="jOoNzDQk0n0tK0R7fyT8-2" value="" style="ellipse;whiteSpace=wrap;html=1;strokeWidth=1;fontFamily=Times New Roman;fontSize=14;fillColor=none;" vertex="1" parent="1">
                    <mxGeometry x="35" y="295" width="140" height="100" as="geometry"/>
                </mxCell>
                <mxCell id="jOoNzDQk0n0tK0R7fyT8-3" value="" style="ellipse;whiteSpace=wrap;html=1;strokeWidth=1;fontFamily=Times New Roman;fontSize=14;fillColor=none;" vertex="1" parent="1">
                    <mxGeometry x="55" y="345" width="20" height="20" as="geometry"/>
                </mxCell>
                <mxCell id="jOoNzDQk0n0tK0R7fyT8-4" value="" style="ellipse;whiteSpace=wrap;html=1;strokeWidth=1;fontFamily=Times New Roman;fontSize=14;fillColor=none;" vertex="1" parent="1">
                    <mxGeometry x="85" y="365" width="20" height="20" as="geometry"/>
                </mxCell>
                <mxCell id="jOoNzDQk0n0tK0R7fyT8-5" value="" style="ellipse;whiteSpace=wrap;html=1;strokeWidth=1;fontFamily=Times New Roman;fontSize=14;fillColor=none;" vertex="1" parent="1">
                    <mxGeometry x="135" y="355" width="20" height="20" as="geometry"/>
                </mxCell>
                <mxCell id="jOoNzDQk0n0tK0R7fyT8-6" value="" style="ellipse;whiteSpace=wrap;html=1;strokeWidth=1;fontFamily=Times New Roman;fontSize=14;fillColor=none;" vertex="1" parent="1">
                    <mxGeometry x="85" y="325" width="20" height="20" as="geometry"/>
                </mxCell>
                <mxCell id="jOoNzDQk0n0tK0R7fyT8-7" value="" style="ellipse;whiteSpace=wrap;html=1;strokeWidth=1;fontFamily=Times New Roman;fontSize=14;fillColor=none;" vertex="1" parent="1">
                    <mxGeometry x="125" y="325" width="20" height="20" as="geometry"/>
                </mxCell>
                <mxCell id="jOoNzDQk0n0tK0R7fyT8-8" value="Chromosome" style="text;html=1;strokeColor=none;fillColor=none;align=center;verticalAlign=middle;whiteSpace=wrap;rounded=0;strokeWidth=1;fontFamily=Times New Roman;fontSize=14;" vertex="1" parent="1">
                    <mxGeometry x="75" y="295" width="60" height="30" as="geometry"/>
                </mxCell>
                <mxCell id="jOoNzDQk0n0tK0R7fyT8-9" value="Genes" style="text;html=1;strokeColor=none;fillColor=none;align=center;verticalAlign=middle;whiteSpace=wrap;rounded=0;strokeWidth=1;fontFamily=Times New Roman;fontSize=14;" vertex="1" parent="1">
                    <mxGeometry x="75" y="340" width="60" height="30" as="geometry"/>
                </mxCell>
                <mxCell id="jOoNzDQk0n0tK0R7fyT8-10" value="" style="ellipse;whiteSpace=wrap;html=1;strokeWidth=1;fontFamily=Times New Roman;fontSize=14;fillColor=none;" vertex="1" parent="1">
                    <mxGeometry x="55" y="435" width="140" height="100" as="geometry"/>
                </mxCell>
                <mxCell id="jOoNzDQk0n0tK0R7fyT8-11" value="" style="ellipse;whiteSpace=wrap;html=1;strokeWidth=1;fontFamily=Times New Roman;fontSize=14;fillColor=none;" vertex="1" parent="1">
                    <mxGeometry x="75" y="485" width="20" height="20" as="geometry"/>
                </mxCell>
                <mxCell id="jOoNzDQk0n0tK0R7fyT8-12" value="" style="ellipse;whiteSpace=wrap;html=1;strokeWidth=1;fontFamily=Times New Roman;fontSize=14;fillColor=none;" vertex="1" parent="1">
                    <mxGeometry x="105" y="505" width="20" height="20" as="geometry"/>
                </mxCell>
                <mxCell id="jOoNzDQk0n0tK0R7fyT8-13" value="" style="ellipse;whiteSpace=wrap;html=1;strokeWidth=1;fontFamily=Times New Roman;fontSize=14;fillColor=none;" vertex="1" parent="1">
                    <mxGeometry x="155" y="495" width="20" height="20" as="geometry"/>
                </mxCell>
                <mxCell id="jOoNzDQk0n0tK0R7fyT8-14" value="" style="ellipse;whiteSpace=wrap;html=1;strokeWidth=1;fontFamily=Times New Roman;fontSize=14;fillColor=none;" vertex="1" parent="1">
                    <mxGeometry x="105" y="465" width="20" height="20" as="geometry"/>
                </mxCell>
                <mxCell id="jOoNzDQk0n0tK0R7fyT8-15" value="" style="ellipse;whiteSpace=wrap;html=1;strokeWidth=1;fontFamily=Times New Roman;fontSize=14;fillColor=none;" vertex="1" parent="1">
                    <mxGeometry x="145" y="465" width="20" height="20" as="geometry"/>
                </mxCell>
                <mxCell id="jOoNzDQk0n0tK0R7fyT8-16" value="Chromosome" style="text;html=1;strokeColor=none;fillColor=none;align=center;verticalAlign=middle;whiteSpace=wrap;rounded=0;strokeWidth=1;fontFamily=Times New Roman;fontSize=14;" vertex="1" parent="1">
                    <mxGeometry x="95" y="435" width="60" height="30" as="geometry"/>
                </mxCell>
                <mxCell id="jOoNzDQk0n0tK0R7fyT8-17" value="Genes" style="text;html=1;strokeColor=none;fillColor=none;align=center;verticalAlign=middle;whiteSpace=wrap;rounded=0;strokeWidth=1;fontFamily=Times New Roman;fontSize=14;" vertex="1" parent="1">
                    <mxGeometry x="95" y="480" width="60" height="30" as="geometry"/>
                </mxCell>
                <mxCell id="jOoNzDQk0n0tK0R7fyT8-18" value="" style="ellipse;whiteSpace=wrap;html=1;strokeWidth=1;fontFamily=Times New Roman;fontSize=14;fillColor=none;" vertex="1" parent="1">
                    <mxGeometry x="215" y="485" width="140" height="100" as="geometry"/>
                </mxCell>
                <mxCell id="jOoNzDQk0n0tK0R7fyT8-19" value="" style="ellipse;whiteSpace=wrap;html=1;strokeWidth=1;fontFamily=Times New Roman;fontSize=14;fillColor=none;" vertex="1" parent="1">
                    <mxGeometry x="235" y="535" width="20" height="20" as="geometry"/>
                </mxCell>
                <mxCell id="jOoNzDQk0n0tK0R7fyT8-20" value="" style="ellipse;whiteSpace=wrap;html=1;strokeWidth=1;fontFamily=Times New Roman;fontSize=14;fillColor=none;" vertex="1" parent="1">
                    <mxGeometry x="265" y="555" width="20" height="20" as="geometry"/>
                </mxCell>
                <mxCell id="jOoNzDQk0n0tK0R7fyT8-21" value="" style="ellipse;whiteSpace=wrap;html=1;strokeWidth=1;fontFamily=Times New Roman;fontSize=14;fillColor=none;" vertex="1" parent="1">
                    <mxGeometry x="315" y="545" width="20" height="20" as="geometry"/>
                </mxCell>
                <mxCell id="jOoNzDQk0n0tK0R7fyT8-22" value="" style="ellipse;whiteSpace=wrap;html=1;strokeWidth=1;fontFamily=Times New Roman;fontSize=14;fillColor=none;" vertex="1" parent="1">
                    <mxGeometry x="265" y="515" width="20" height="20" as="geometry"/>
                </mxCell>
                <mxCell id="jOoNzDQk0n0tK0R7fyT8-23" value="" style="ellipse;whiteSpace=wrap;html=1;strokeWidth=1;fontFamily=Times New Roman;fontSize=14;fillColor=none;" vertex="1" parent="1">
                    <mxGeometry x="305" y="515" width="20" height="20" as="geometry"/>
                </mxCell>
                <mxCell id="jOoNzDQk0n0tK0R7fyT8-24" value="Chromosome" style="text;html=1;strokeColor=none;fillColor=none;align=center;verticalAlign=middle;whiteSpace=wrap;rounded=0;strokeWidth=1;fontFamily=Times New Roman;fontSize=14;" vertex="1" parent="1">
                    <mxGeometry x="255" y="485" width="60" height="30" as="geometry"/>
                </mxCell>
                <mxCell id="jOoNzDQk0n0tK0R7fyT8-25" value="Genes" style="text;html=1;strokeColor=none;fillColor=none;align=center;verticalAlign=middle;whiteSpace=wrap;rounded=0;strokeWidth=1;fontFamily=Times New Roman;fontSize=14;" vertex="1" parent="1">
                    <mxGeometry x="255" y="530" width="60" height="30" as="geometry"/>
                </mxCell>
                <mxCell id="jOoNzDQk0n0tK0R7fyT8-26" value="" style="ellipse;whiteSpace=wrap;html=1;strokeWidth=1;fontFamily=Times New Roman;fontSize=14;fillColor=none;" vertex="1" parent="1">
                    <mxGeometry x="365" y="375" width="140" height="100" as="geometry"/>
                </mxCell>
                <mxCell id="jOoNzDQk0n0tK0R7fyT8-27" value="" style="ellipse;whiteSpace=wrap;html=1;strokeWidth=1;fontFamily=Times New Roman;fontSize=14;fillColor=none;" vertex="1" parent="1">
                    <mxGeometry x="385" y="425" width="20" height="20" as="geometry"/>
                </mxCell>
                <mxCell id="jOoNzDQk0n0tK0R7fyT8-28" value="" style="ellipse;whiteSpace=wrap;html=1;strokeWidth=1;fontFamily=Times New Roman;fontSize=14;fillColor=none;" vertex="1" parent="1">
                    <mxGeometry x="415" y="445" width="20" height="20" as="geometry"/>
                </mxCell>
                <mxCell id="jOoNzDQk0n0tK0R7fyT8-29" value="" style="ellipse;whiteSpace=wrap;html=1;strokeWidth=1;fontFamily=Times New Roman;fontSize=14;fillColor=none;" vertex="1" parent="1">
                    <mxGeometry x="465" y="435" width="20" height="20" as="geometry"/>
                </mxCell>
                <mxCell id="jOoNzDQk0n0tK0R7fyT8-30" value="" style="ellipse;whiteSpace=wrap;html=1;strokeWidth=1;fontFamily=Times New Roman;fontSize=14;fillColor=none;" vertex="1" parent="1">
                    <mxGeometry x="415" y="405" width="20" height="20" as="geometry"/>
                </mxCell>
                <mxCell id="jOoNzDQk0n0tK0R7fyT8-31" value="" style="ellipse;whiteSpace=wrap;html=1;strokeWidth=1;fontFamily=Times New Roman;fontSize=14;fillColor=none;" vertex="1" parent="1">
                    <mxGeometry x="455" y="405" width="20" height="20" as="geometry"/>
                </mxCell>
                <mxCell id="jOoNzDQk0n0tK0R7fyT8-32" value="Chromosome" style="text;html=1;strokeColor=none;fillColor=none;align=center;verticalAlign=middle;whiteSpace=wrap;rounded=0;strokeWidth=1;fontFamily=Times New Roman;fontSize=14;" vertex="1" parent="1">
                    <mxGeometry x="405" y="375" width="60" height="30" as="geometry"/>
                </mxCell>
                <mxCell id="jOoNzDQk0n0tK0R7fyT8-33" value="Genes" style="text;html=1;strokeColor=none;fillColor=none;align=center;verticalAlign=middle;whiteSpace=wrap;rounded=0;strokeWidth=1;fontFamily=Times New Roman;fontSize=14;" vertex="1" parent="1">
                    <mxGeometry x="405" y="420" width="60" height="30" as="geometry"/>
                </mxCell>
                <mxCell id="jOoNzDQk0n0tK0R7fyT8-34" value="" style="ellipse;whiteSpace=wrap;html=1;strokeWidth=1;fontFamily=Times New Roman;fontSize=14;fillColor=none;" vertex="1" parent="1">
                    <mxGeometry x="225" y="305" width="140" height="100" as="geometry"/>
                </mxCell>
                <mxCell id="jOoNzDQk0n0tK0R7fyT8-35" value="" style="ellipse;whiteSpace=wrap;html=1;strokeWidth=1;fontFamily=Times New Roman;fontSize=14;fillColor=none;" vertex="1" parent="1">
                    <mxGeometry x="245" y="355" width="20" height="20" as="geometry"/>
                </mxCell>
                <mxCell id="jOoNzDQk0n0tK0R7fyT8-36" value="" style="ellipse;whiteSpace=wrap;html=1;strokeWidth=1;fontFamily=Times New Roman;fontSize=14;fillColor=none;" vertex="1" parent="1">
                    <mxGeometry x="275" y="375" width="20" height="20" as="geometry"/>
                </mxCell>
                <mxCell id="jOoNzDQk0n0tK0R7fyT8-37" value="" style="ellipse;whiteSpace=wrap;html=1;strokeWidth=1;fontFamily=Times New Roman;fontSize=14;fillColor=none;" vertex="1" parent="1">
                    <mxGeometry x="325" y="365" width="20" height="20" as="geometry"/>
                </mxCell>
                <mxCell id="jOoNzDQk0n0tK0R7fyT8-38" value="" style="ellipse;whiteSpace=wrap;html=1;strokeWidth=1;fontFamily=Times New Roman;fontSize=14;fillColor=none;" vertex="1" parent="1">
                    <mxGeometry x="275" y="335" width="20" height="20" as="geometry"/>
                </mxCell>
                <mxCell id="jOoNzDQk0n0tK0R7fyT8-39" value="" style="ellipse;whiteSpace=wrap;html=1;strokeWidth=1;fontFamily=Times New Roman;fontSize=14;fillColor=none;" vertex="1" parent="1">
                    <mxGeometry x="315" y="335" width="20" height="20" as="geometry"/>
                </mxCell>
                <mxCell id="jOoNzDQk0n0tK0R7fyT8-40" value="Chromosome" style="text;html=1;strokeColor=none;fillColor=none;align=center;verticalAlign=middle;whiteSpace=wrap;rounded=0;strokeWidth=1;fontFamily=Times New Roman;fontSize=14;" vertex="1" parent="1">
                    <mxGeometry x="265" y="305" width="60" height="30" as="geometry"/>
                </mxCell>
                <mxCell id="jOoNzDQk0n0tK0R7fyT8-41" value="Genes" style="text;html=1;strokeColor=none;fillColor=none;align=center;verticalAlign=middle;whiteSpace=wrap;rounded=0;strokeWidth=1;fontFamily=Times New Roman;fontSize=14;" vertex="1" parent="1">
                    <mxGeometry x="265" y="350" width="60" height="30" as="geometry"/>
                </mxCell>
                <mxCell id="jOoNzDQk0n0tK0R7fyT8-42" value="&lt;font style=&quot;font-size: 18px;&quot;&gt;Population&lt;/font&gt;" style="text;html=1;strokeColor=none;fillColor=none;align=center;verticalAlign=middle;whiteSpace=wrap;rounded=0;strokeWidth=1;fontFamily=Times New Roman;fontSize=14;" vertex="1" parent="1">
                    <mxGeometry x="215" y="245" width="60" height="30" as="geometry"/>
                </mxCell>
            </root>
        </mxGraphModel>
    </diagram>
</mxfile>